<svg width="158" height="46" xmlns="http://www.w3.org/2000/svg"><g fill="#1A2D59" fill-rule="nonzero"><path d="M2.203 25.74c.692 2.895 2.769 6.2 5.853 9.283l2.392-2.392c-3.305-3.304-5.728-7.269-6.672-10.92a14.63 14.63 0 0 1-.377-2.14c-1.385 1.7-1.763 3.746-1.196 6.169ZM12.839 2.39c5.318-.881 12.902 2.329 19.227 8.654l2.109-2.108a.399.399 0 0 0 0-.567c-7.332-7.175-16.553-9.787-21.43-6.23-.126.094-.063.283.094.251ZM5.948 6.544A6.84 6.84 0 0 0 4.752 8.18c-.063.126.063.252.189.158 5.035-3.273 14.601-.19 22.31 7.49l2.392-2.392C21.21 5.002 10.605 1.918 5.948 6.544Zm-3.65 5.916C.85 13.908.125 15.859 0 18.093c0 .126.157.189.22.094.378-.566.818-1.101 1.322-1.605 5.664-5.664 13.972-2.8 20.864 4.091l2.391-2.391c-7.773-7.867-17.874-10.448-22.5-5.822Zm29.737-1.416-2.392 2.392c6.326 6.325 9.535 13.94 8.654 19.258-.031.126.126.19.22.095 3.62-4.94.913-14.35-6.482-21.745Zm-7.175 7.175c7.71 7.71 10.825 17.339 7.458 22.374-.063.094.032.189.126.157a6.501 6.501 0 0 0 1.7-1.227c4.625-4.626 1.541-15.23-6.892-23.696L24.86 18.22Zm-4.815 4.814c2.455 2.455 4.438 5.287 5.665 8.056-2.77-1.227-5.602-3.21-8.056-5.664l-2.392 2.392c3.556 3.556 7.773 6.199 11.58 7.269.032 0 .095.031.127.031.188 1.133.188 2.172.062 3.053-3.933-.472-9.346-3.147-14.16-7.962L10.479 32.6c3.556 3.556 7.773 6.2 11.58 7.27 1.542.44 2.927.597 4.091.503-.094.126-.22.251-.346.377-1.353 1.353-3.839 1.668-6.86.913-3.619-.913-7.615-3.367-10.92-6.671L5.916 37.1a.399.399 0 0 0 0 .566c7.773 7.584 17.685 10.039 22.28 5.476 4.626-4.626 2.045-14.727-5.759-22.563l-2.392 2.454ZM8.055 16.96a6.39 6.39 0 0 0-2.705.881c.063.252.126.535.188.787 1.07 3.808 3.745 8.024 7.27 11.58l2.391-2.391c-3.304-3.336-5.853-7.238-7.143-10.857Zm9.599 8.465 2.391-2.392c-2.706-2.706-5.57-4.625-8.213-5.538 1.353 2.706 3.304 5.444 5.822 7.93ZM122.318 36.502v7.962h-4.5V17.558h4.5v18.944Zm5.79-18.944h-5.286v4.311h5.286c2.33 0 4.06 1.7 4.06 3.934 0 2.265-1.73 3.996-4.06 3.996h-5.286v4.311h5.286c4.972 0 8.623-3.493 8.623-8.307-.032-4.752-3.682-8.245-8.623-8.245Zm14.822 18.944V17.558h-4.5v26.906h4.5v-7.962Zm5.79-18.944h-5.286v4.311h5.286c2.329 0 4.06 1.7 4.06 3.934 0 2.265-1.731 3.996-4.06 3.996h-5.286v4.311h5.286c4.972 0 8.623-3.493 8.623-8.307 0-4.752-3.65-8.245-8.623-8.245ZM53.12 23.002c.692-.913 2.014-1.479 3.682-1.479 2.423 0 5.066 1.164 6.891 2.99l2.612-3.494c-1.856-2.202-5.696-3.839-9.157-3.839-1.48 0-2.832.252-4.028.724v5.098Zm-.535 1.573v-6.451c-2.8 1.29-4.532 3.808-4.532 6.766 0 9.787 14.193 6.294 14.256 11.8v7.05c2.958-1.448 4.626-4.154 4.626-7.08 0-9.661-14.287-6.389-14.35-12.085Zm9.22 13.972c-.787 1.228-2.391 1.952-4.468 1.952-3.305 0-5.696-1.574-7.773-3.588l-2.895 3.304c2.329 2.612 6.545 4.626 10.636 4.626 1.7 0 3.21-.315 4.469-.85v-5.444h.031Zm50.633-3.776H94.941l-3.871 9.693h4.752l2.108-5.382h11.36l2.077 5.382h4.878l-3.808-9.693Zm-12.619-.503 3.84-9.787 3.807 9.787h4.783l-6.671-16.71H101.8l-6.672 16.71h4.69Zm-10.227 7.049v-23.76h-4.532v17.309l4.532 6.45Zm-21.178-20.58v23.727h4.5V27.156l-4.5-6.42Zm16.646 15.041-12.713-18.22h-3.933v2.297l4.5 6.388 12.807 18.22h3.87V42.23l-4.53-6.45ZM48.619 7.394c.755.377 1.416.598 1.95.598.662 0 1.134-.347 1.134-.85 0-.598-.63-.913-1.353-1.259-1.007-.503-2.235-1.101-2.235-2.706s1.07-2.55 2.864-2.55c.913 0 1.762.221 2.612.725l-.755 1.384c-.724-.346-1.26-.472-1.731-.472-.63 0-.913.44-.913.881 0 .535.598.819 1.29 1.133 1.008.472 2.235 1.039 2.235 2.675 0 1.73-1.102 2.738-2.958 2.738-1.007 0-1.888-.252-2.832-.787l.692-1.51Zm11.77-3.21c0 2.675-2.078 2.958-2.99 2.958H56.8v2.391h-1.983V1.635c.661-.032 1.825-.032 2.612-.032 1.92.032 2.958.913 2.958 2.58Zm-1.889.283c0-.85-.189-1.353-1.101-1.353h-.63V5.63h.598c.787.032 1.133-.346 1.133-1.164Zm8.843 5.066h-2.14a5.84 5.84 0 0 0-.881-2.423h-.976v2.392h-1.982V1.635c.66-.032 1.825-.032 2.612-.032 1.51 0 3.146.661 3.146 2.58 0 .945-.346 1.763-1.007 2.267h-.031v.031c.409.63 1.07 1.857 1.259 3.052Zm-2.298-5.066c0-.85-.188-1.353-1.1-1.353h-.63V5.63h.598c.786.032 1.132-.346 1.132-1.164Zm3.525-2.832v7.898h1.951V1.635H68.57Zm7.867 7.898h2.077V1.635h-1.73v5.16l-2.36-5.16h-2.14v7.898h1.73V4.561l2.423 4.972Zm6.829-8.055c-1.196 0-2.046.346-2.644 1.007-.566.692-.85 1.699-.85 3.083 0 3.053.882 4.186 3.305 4.186.755 0 1.92-.19 2.77-.63V5.222h-2.581v1.353h.818V8.18h-.032c-.188.063-.66.095-.88.095-1.04 0-1.448-.756-1.448-2.738 0-1.73.598-2.58 1.825-2.58.409 0 1.007.188 1.636.503l.535-1.322c-.66-.409-1.605-.66-2.454-.66m3.933.157v6.514s0 .63.41 1.038c.251.252.629.41 1.1.41 1.417 0 2.99-.032 3.21-.064V7.992h-2.832V6.26h2.55V4.719h-2.55V3.177h2.801V1.635H87.2Zm12.116 7.898h-2.14a5.84 5.84 0 0 0-.881-2.423h-.976v2.392h-1.982V1.635c.66-.032 1.825-.032 2.612-.032 1.51 0 3.146.661 3.146 2.58 0 .945-.346 1.763-1.007 2.267h-.031v.031c.409.63 1.07 1.857 1.259 3.052Zm-2.298-5.066c0-.85-.188-1.353-1.1-1.353h-.63V5.63h.598c.786.032 1.132-.346 1.132-1.164ZM103.783 3.429v6.104h-1.793V.691h2.297l2.895 6.168V.69h1.825v8.842h-2.329l-2.895-6.104Zm15.074 6.104h2.045V3.24h1.51V1.635h-5.35V3.24h1.763v6.293h.032Zm4.751-7.898v5.35c0 1.888.913 2.737 2.958 2.737 2.109 0 3.084-.944 3.084-3.02V1.634h-2.045V6.89c0 .818-.032 1.29-.944 1.29-.881 0-1.007-.409-1.007-1.321V1.635h-2.046Zm14.602 0v6.514s0 .63.409 1.038c.252.252.63.41 1.101.41 1.416 0 2.99-.032 3.21-.064V7.992h-2.832V6.26h2.549V4.719h-2.55V3.177h2.802V1.635h-4.69ZM117.03 9.533h-2.108l-.283-1.258h-2.203l-.283 1.258h-2.014l1.92-7.898h3.083l1.888 7.898Zm-2.643-2.737-.85-3.43h-.094l-.787 3.43h1.731Zm22.689 2.737h-2.14a5.84 5.84 0 0 0-.881-2.423h-.976v2.392h-1.982V1.635c.66-.032 1.825-.032 2.612-.032 1.51 0 3.147.661 3.147 2.58 0 .945-.347 1.763-1.007 2.267h-.032v.031c.41.63 1.07 1.857 1.259 3.052Zm-2.297-5.066c0-.85-.19-1.353-1.102-1.353h-.629V5.63h.598c.787.032 1.133-.346 1.133-1.164Z"/></g></svg>